<svg xmlns="http://www.w3.org/2000/svg" width="440" height="340" viewBox="40 30 380 300"><path d="M76 198c44-1 79-49 118-70l81 15 45 69c40 6 76 28 76 47l-11 19-194 15c-52 1-105-17-119-41Z" fill="#fdfdf5" stroke="#242821" stroke-width="2" stroke-linecap="round" stroke-linejoin="round"/><path d="m193 128 51-32 32 46-56 41Z" fill="#fdfdf5" stroke="#242821" stroke-width="2" stroke-linecap="round" stroke-linejoin="round"/><path d="M80 240c78 39 178 17 311 9M81 253c62 36 156 25 304 8M97 268l11-8m9 14 13-9m13 15 12-11m12 13 11-9m13 10 12-10m14 9 11-10m15 8 11-10m15 8 13-11m13 10 13-12m13 11 12-12" fill="none" stroke="#242821" stroke-width="2" stroke-linecap="round" stroke-linejoin="round" /><path d="m164 173 89 34m-72-50 80 37m-59-48 65 36M97 230c24-28 52-24 67-13m110-62 11 54 35 3" fill="none" stroke="#242821" stroke-width="3" stroke-linecap="round" stroke-linejoin="round" /><path d="M181 220c48 18 71 5 95-28-17 45-50 56-102 44Z" fill="#242821" stroke="#242821" stroke-width="2" stroke-linecap="round" stroke-linejoin="round"/><path d="m245 103 15 34m-49 2 23-26m-16 83 21-20m-4 28 21-19" fill="none" stroke="#242821" stroke-width="2" stroke-linecap="round" stroke-linejoin="round" /><path d="m310 237 11 -11" fill="none" stroke="#242821" stroke-width="1.2" stroke-linecap="round" stroke-linejoin="round" /><path d="m317 237 11 -11" fill="none" stroke="#242821" stroke-width="1.2" stroke-linecap="round" stroke-linejoin="round" /><path d="m324 237 11 -11" fill="none" stroke="#242821" stroke-width="1.2" stroke-linecap="round" stroke-linejoin="round" /><path d="m331 237 11 -11" fill="none" stroke="#242821" stroke-width="1.2" stroke-linecap="round" stroke-linejoin="round" /><path d="m338 237 11 -11" fill="none" stroke="#242821" stroke-width="1.2" stroke-linecap="round" stroke-linejoin="round" /><path d="m345 237 11 -11" fill="none" stroke="#242821" stroke-width="1.2" stroke-linecap="round" stroke-linejoin="round" /><path d="m352 237 11 -11" fill="none" stroke="#242821" stroke-width="1.2" stroke-linecap="round" stroke-linejoin="round" /></svg>